#define xbm_width 10
#define xbm_height 10
static unsigned char xbm_bits[] = {0x00, 0x00, 0x00, 0x00, 0x00, 0x00, 0x00, 0x00, 0x00, 0x00, 0xff, 0x03, 0xff, 0x03, 0xff, 0x03, 0xff, 0x03, 0xff, 0x03};
